#!OML:ASF F:\VICON\USERDATA\INSTALL\rory3\rory3.ASF
:FULLY-SPECIFIED
:DEGREES
685
root -2.0688 29.1224 -6.58161 7.17242 -2.53469 -357.72
lowerback 3.2546 0.212607 -0.887841
upperback 0.820837 0.273266 1.71044
thorax -0.995062 0.138521 2.24169
lowerneck -14.3828 1.84267 -9.56948
upperneck 41.5608 7.04538 -1.80854
head 17.6502 1.09558 2.16491
rclavicle -9.14409e-015 -7.15625e-015
rhumerus -26.1612 -6.38308 -76.7892
rradius 31.3143
rwrist 19.5421
rhand -22.7546 2.02664
rfingers 7.12502
rthumb 3.68006 -27.9213
lclavicle -9.14409e-015 -7.15625e-015
lhumerus -37.2624 24.2827 74.4766
lradius 22.0522
lwrist -9.11586
lhand -14.4478 28.7175
lfingers 7.12502
lthumb 11.6973 58.3709
rfemur -9.30728 -1.43359 22.2333
rtibia 25.9374
rfoot -25.0154 -9.60119
rtoes 11.4596
lfemur -22.7662 6.57783 -25.1701
ltibia 26.9211
lfoot -7.98118 3.77511
ltoes -11.0161
686
root -2.06936 29.117 -6.56247 7.1914 -2.21157 -357.629
lowerback 3.32776 0.192508 -1.00521
upperback 0.823706 0.24207 1.67546
thorax -1.03194 0.123458 2.27291
lowerneck -14.5044 1.86721 -9.46928
upperneck 41.6125 7.10112 -1.85505
head 17.7164 1.12243 2.14128
rclavicle 1.33186e-014 8.74653e-015
rhumerus -26.0486 -6.26465 -76.9461
rradius 31.383
rwrist 19.8913
rhand -22.1807 1.17857
rfingers 7.12502
rthumb 4.23423 -28.7591
lclavicle 1.33186e-014 8.74653e-015
lhumerus -37.3934 24.3644 74.3757
lradius 21.9951
lwrist -9.17148
lhand -14.4878 28.264
lfingers 7.12502
lthumb 11.6587 57.9196
rfemur -9.25578 -1.60023 22.179
rtibia 25.9884
rfoot -25.1726 -9.72286
rtoes 11.3848
lfemur -22.6191 6.15243 -25.242
ltibia 26.7945
lfoot -8.00987 3.50178
ltoes -10.2576
687
root -2.06711 29.1132 -6.53488 7.2316 -2.05511 -357.566
lowerback 3.23388 0.315191 -1.00329
upperback 0.806428 0.40565 1.64386
thorax -1.00458 0.205115 2.23276
lowerneck -14.3241 1.83718 -9.53593
upperneck 41.6541 7.06417 -1.85012
head 17.6941 1.1037 2.14534
rclavicle 7.95139e-016 2.3059e-014
rhumerus -26.1635 -6.33589 -76.9431
rradius 31.4954
rwrist 19.804
rhand -22.1709 0.909514
rfingers 7.12502
rthumb 4.24376 -29.028
lclavicle 7.95139e-016 2.3059e-014
lhumerus -37.621 24.389 74.3361
lradius 21.9766
lwrist -9.49177
lhand -14.3695 27.8435
lfingers 7.12502
lthumb 11.7728 57.4926
rfemur -9.23499 -1.69197 22.115
rtibia 26.0613
rfoot -25.3166 -9.75636
rtoes 11.3463
lfemur -22.4503 5.82688 -25.2888
ltibia 26.7033
lfoot -8.25635 3.30961
ltoes -9.72534
688
root -2.06167 29.1106 -6.50225 7.25047 -1.92959 -357.525
lowerback 3.02925 0.421939 -1.01571
upperback 0.877455 0.546951 1.59784
thorax -0.823469 0.273681 2.18813
lowerneck -14.2717 1.81434 -9.5142
upperneck 41.6344 7.01825 -1.84284
head 17.671 1.09551 2.13614
rclavicle -8.15017e-015 -7.95139e-016
rhumerus -26.0656 -6.33834 -77.0908
rradius 31.4472
rwrist 19.3501
rhand -22.4842 1.09824
rfingers 7.12502
rthumb 3.94118 -28.8451
lclavicle -8.15017e-015 -7.95139e-016
lhumerus -37.6544 24.4798 74.2796
lradius 21.9399
lwrist -9.80086
lhand -14.1878 27.9144
lfingers 7.12502
lthumb 11.948 57.5534
rfemur -9.17878 -1.76253 22.0542
rtibia 26.1586
rfoot -25.4505 -9.77992
rtoes 10.8303
lfemur -22.2512 5.45666 -25.3036
ltibia 26.6555
lfoot -8.55036 3.31098
ltoes -9.0068
689
root -2.05583 29.1051 -6.47325 7.29383 -1.74602 -357.507
lowerback 2.8903 0.503553 -1.01817
upperback 0.942292 0.65494 1.53097
thorax -0.683451 0.326037 2.11813
lowerneck -14.3847 1.75846 -9.4108
upperneck 41.6303 6.9064 -1.80567
head 17.7026 1.07151 2.11971
rclavicle -4.17448e-015 1.90833e-014
rhumerus -25.9806 -6.34592 -77.2861
rradius 31.4354
rwrist 19.0587
rhand -22.6669 1.46137
rfingers 7.12502
rthumb 3.76475 -28.4851
lclavicle -4.17448e-015 1.90833e-014
lhumerus -37.5053 24.4564 74.2357
lradius 21.7636
lwrist -9.92504
lhand -14.1195 27.7115
lfingers 7.12502
lthumb 12.0139 57.3467
rfemur -9.16345 -1.83665 22.0376
rtibia 26.2692
rfoot -25.5379 -9.93037
rtoes 10.3246
lfemur -22.0983 5.02121 -25.2693
ltibia 26.606
lfoot -8.80193 3.3281
ltoes -8.52546
690
root -2.05141 29.0968 -6.44677 7.31463 -1.54939 -357.481
lowerback 2.88416 0.540731 -1.06783
upperback 0.973365 0.702731 1.5102
thorax -0.650626 0.34943 2.12324
lowerneck -14.5181 1.74978 -9.44701
upperneck 41.6987 6.88654 -1.6801
head 17.7669 1.06991 2.18572
rclavicle 2.60408e-014 1.66979e-014
rhumerus -26.0209 -6.23422 -77.4246
rradius 31.6161
rwrist 18.9841
rhand -22.0765 1.1824
rfingers 7.12502
rthumb 4.33488 -28.7532
lclavicle 2.60408e-014 1.66979e-014
lhumerus -37.4878 24.4566 74.2245
lradius 21.7356
lwrist -10.0069
lhand -13.9956 27.7207
lfingers 7.12502
lthumb 12.1333 57.3488
rfemur -9.16634 -1.86431 22.0237
rtibia 26.418
rfoot -25.653 -10.0917
rtoes 9.91815
lfemur -21.9687 4.73964 -25.26
ltibia 26.5605
lfoot -9.00909 3.28145
ltoes -8.74366
691
root -2.04696 29.0901 -6.4193 7.29507 -1.25097 -357.395
lowerback 2.9155 0.531156 -1.17571
upperback 0.970633 0.68688 1.51114
thorax -0.671481 0.341697 2.18514
lowerneck -14.4191 1.79347 -9.54228
upperneck 41.6565 6.92287 -1.56204
head 17.7008 1.09444 2.25977
rclavicle 1.59028e-014 1.11319e-014
rhumerus -26.0107 -6.17981 -77.4995
rradius 31.5866
rwrist 18.8851
rhand -21.5995 1.24662
rfingers 7.12502
rthumb 4.79553 -28.6791
lclavicle 1.59028e-014 1.11319e-014
lhumerus -37.6008 24.4084 74.2612
lradius 21.8187
lwrist -9.91843
lhand -13.8667 28.0944
lfingers 7.12502
lthumb 12.2576 57.7152
rfemur -9.12176 -1.94291 21.9558
rtibia 26.6102
rfoot -25.9182 -10.2483
rtoes 9.75984
lfemur -21.8403 4.43684 -25.3073
ltibia 26.5427
lfoot -9.1779 3.03635
ltoes -8.64762
692
root -2.0422 29.0846 -6.39298 7.23273 -0.933888 -357.373
lowerback 2.99943 0.539493 -1.20458
upperback 0.999823 0.696348 1.48708
thorax -0.689005 0.346372 2.17573
lowerneck -14.372 1.78403 -9.5046
upperneck 41.6081 6.88826 -1.55734
head 17.6621 1.09367 2.24779
rclavicle -2.56432e-014 -8.74653e-015
rhumerus -25.9626 -6.22374 -77.6394
rradius 31.5486
rwrist 18.6704
rhand -21.6101 1.56349
rfingers 7.12502
rthumb 4.78524 -28.3625
lclavicle -2.56432e-014 -8.74653e-015
lhumerus -37.6401 24.1564 74.3683
lradius 21.9797
lwrist -9.6379
lhand -13.9101 28.317
lfingers 7.12502
lthumb 12.2158 57.9402
rfemur -9.00765 -1.9953 21.9626
rtibia 26.81
rfoot -26.2622 -10.4305
rtoes 9.59526
lfemur -21.7017 4.27476 -25.3011
ltibia 26.5591
lfoot -9.3825 2.54902
ltoes -8.49517
693
root -2.0368 29.0788 -6.36868 7.2553 -0.718109 -357.368
lowerback 3.01168 0.610892 -1.24742
upperback 1.02361 0.789665 1.44246
thorax -0.67579 0.392733 2.15057
lowerneck -14.4181 1.73583 -9.30889
upperneck 41.6145 6.79995 -1.64299
head 17.6945 1.0771 2.16166
rclavicle 1.8487e-014 1.19271e-014
rhumerus -26.018 -6.39096 -77.7881
rradius 31.7542
rwrist 18.7027
rhand -21.5019 1.54972
rfingers 7.12502
rthumb 4.88976 -28.3739
lclavicle 1.8487e-014 1.19271e-014
lhumerus -37.5521 23.8607 74.5106
lradius 22.1123
lwrist -9.42988
lhand -14.0006 28.2607
lfingers 7.12502
lthumb 12.1285 57.8891
rfemur -9.00457 -1.96649 21.9852
rtibia 26.997
rfoot -26.5307 -10.6707
rtoes 8.92642
lfemur -21.6788 4.19595 -25.2934
ltibia 26.6078
lfoot -9.58809 2.15025
ltoes -8.21835
